PathFileType	4	(X/Y/Z)	/Users/niels/Desktop/University/Third Semester/Perception and Action/Exam/Gymnastics Motion Tracking/Code for Gym Tracking/Analyzed Data/Webcam_Backflip/id2002_2_baseline_Sports2D/id2002_2_baseline_Sports2D_px_person00.trc
DataRate	CameraRate	NumFrames	NumMarkers	Units	OrigDataRate	OrigDataStartFrame	OrigNumFrames
29.798657718120804	29.798657718120804	8	22	m	29.798657718120804	0	149
Frame#	Time	Hip			RHip			RKnee			RAnkle			RBigToe			RSmallToe			RHeel			LHip			LKnee			LAnkle			LBigToe			LSmallToe			LHeel			Neck			Head			Nose			RShoulder			RElbow			RWrist			LShoulder			LElbow			LWrist		
		X1	Y1	Z1	X2	Y2	Z2	X3	Y3	Z3	X4	Y4	Z4	X5	Y5	Z5	X6	Y6	Z6	X7	Y7	Z7	X8	Y8	Z8	X9	Y9	Z9	X10	Y10	Z10	X11	Y11	Z11	X12	Y12	Z12	X13	Y13	Z13	X14	Y14	Z14	X15	Y15	Z15	X16	Y16	Z16	X17	Y17	Z17	X18	Y18	Z18	X19	Y19	Z19	X20	Y20	Z20	X21	Y21	Z21	X22	Y22	Z22
0	0.0	0.986288759216163	-0.7301803674151207	0.0	1.0901560885346044	-0.7498282965731049	0.0	1.120991646516919	-1.055849323516843	0.0	1.0888439941537094	-1.0748928222664327	0.0			0.0			0.0			0.0	0.8936466884699134	-0.7414048225702892	0.0	0.9245143963906332	-1.0614645492815145	0.0	1.0741944579418932	-1.0583576658783067	0.0			0.0			0.0			0.0	1.0620846275342346	-0.12935669806394867	0.0	1.2614245050939772	-0.18268606281260535	0.0	1.21652234431727	-0.028295511917725894	0.0	1.210877165725248	-0.07600151303522165	0.0	1.2866753260307449	-0.45782749390861494	0.0	1.40737744145219	-0.7750565838343322	0.0	0.8711833253801663	-0.14619348210405045	0.0	0.7925916306419275	-0.46625234024275414	0.0	1.0143419712049238	-0.4776747420995788	0.0
1	0.03355855855855856	0.9809907853029317	-0.7311101474396108	0.0	1.0841104033353322	-0.7502750639000901	0.0	1.1122527091218029	-1.0551961864311405	0.0	1.0888439941632164	-1.0748928222669532	0.0			0.0			0.0			0.0	0.8880827365983571	-0.7416206745730621	0.0	0.9187655891592194	-1.060770830508824	0.0	1.074194457922687	-1.0583576654706546	0.0			0.0			0.0			0.0	1.0549509445332008	-0.1321819452909259	0.0	1.243435221713279	-0.13683559372788962	0.0	1.2044176023449957	-0.03176840542374727	0.0	1.2014665222673107	-0.09088715708735089	0.0	1.2754115175384537	-0.461891796471003	0.0	1.3975410438746387	-0.7759176686308581	0.0	0.8674276100493281	-0.15566281669160434	0.0	0.7913858932372556	-0.47072317603288166	0.0	1.0042746038516848	-0.46288975782037267	0.0
2	0.06711711711711713	0.9756815791411928	-0.7311066731346424	0.0	1.077915048658948	-0.7496491038775032	0.0	1.1067503302684611	-1.0549314804670242	0.0	1.08884399417148	-1.0748928222673462	0.0			0.0			0.0			0.0	0.8827715252422391	-0.7408315422335416	0.0	0.9141255939920584	-1.0602366437815818	0.0	1.0741944579318017	-1.0583576648393402	0.0			0.0			0.0			0.0	1.0484181762675113	-0.13532751777782773	0.0	1.2270680432917693	-0.0988526627582549	0.0	1.19331507984836	-0.03815165196570204	0.0	1.192434969315862	-0.10512090834213332	0.0	1.2637111237043717	-0.46573550330700336	0.0	1.3869099777930494	-0.7759198983628026	0.0	0.8636893621085115	-0.16546059974561286	0.0	0.7904374600894564	-0.47491688889427264	0.0	0.994658129098237	-0.44852886811743603	0.0
3	0.10067567567567569	0.970434846189322	-0.7295903248630596	0.0	1.0716037754963788	-0.7471942310532441	0.0	1.1065130855531755	-1.055187332943311	0.0	1.08884399417133	-1.0748928222671736	0.0			0.0			0.0			0.0	0.8779264402334322	-0.7385702371985112	0.0	0.9111336422433214	-1.0599096665499246	0.0	1.0741944580035656	-1.0583576640788588	0.0			0.0			0.0			0.0	1.0428196868285895	-0.13920163477316005	0.0	1.2133270078110763	-0.07306220563131911	0.0	1.183630672431394	-0.04837583802830575	0.0	1.1840420260135969	-0.11818496073463748	0.0	1.2513310480360709	-0.4691955684264295	0.0	1.3748849773132419	-0.7744488365071779	0.0	0.8599670911291641	-0.17584642394363031	0.0	0.7899098388956033	-0.47866778648189373	0.0	0.985941246025575	-0.4352806635997398	0.0
4	0.13423423423423425	0.9654296483826591	-0.7265501884348051	0.0	1.0654073446190078	-0.7427467459543038	0.0	1.1117993623002118	-1.0559281180737423	0.0	1.088843994150896	-1.0748928222657435	0.0			0.0			0.0			0.0	0.8736594095316467	-0.7350309374112367	0.0	0.9095760871365348	-1.059813295702681	0.0	1.0741944581801883	-1.05835766350255	0.0			0.0			0.0			0.0	1.0381977084597782	-0.14393174280529045	0.0	1.2023447071668454	-0.058843231383042545	0.0	1.1750636861559256	-0.06130674510111523	0.0	1.176312798545453	-0.12986278630375975	0.0	1.2384015702369273	-0.4722056445490926	0.0	1.361346436619954	-0.7714212472433484	0.0	0.8562919845765569	-0.18689000762087576	0.0	0.789872991746266	-0.48200993829491934	0.0	0.978596542730041	-0.42417070183167116	0.0
5	0.1677927927927928	0.9609269481718702	-0.7225004566272168	0.0	1.059702719956437	-0.736813786986363	0.0	1.121409205337173	-1.0571083597563928	0.0	1.0888439940946817	-1.0748928222622016	0.0			0.0			0.0			0.0	0.8700002087634251	-0.7308030101744094	0.0	0.9087451408517786	-1.06007648152912	0.0	1.0741944584953815	-1.0583576637490892	0.0			0.0			0.0			0.0	1.0344496171608346	-0.14928901191423083	0.0	1.193632712518864	-0.052161192295917425	0.0	1.1668970960405087	-0.075083049945634	0.0	1.1690550316546355	-0.1402684896231823	0.0	1.2253625552881064	-0.4747396674437977	0.0	1.3466623048011983	-0.7672622842581553	0.0	0.8528485561974003	-0.19832890558619673	0.0	0.7904339873287061	-0.4851353109404378	0.0	0.9731802129527146	-0.4174583712310423	0.0
6	0.20135135135135138	0.9571979078906862	-0.7182081817847357	0.0	1.0549191125709423	-0.7303730382065543	0.0	1.1332997407487246	-1.0586187603140993	0.0	1.088843993988534	-1.0748928222558598	0.0			0.0			0.0			0.0	0.8669926155468053	-0.7265619029502475	0.0	0.9079555617351414	-1.0608370102891145	0.0	1.0741944589402368	-1.0583576658278078	0.0			0.0			0.0			0.0	1.031438653478264	-0.15498385505347398	0.0	1.1866183564284627	-0.04847423845193719	0.0	1.158512195469977	-0.08804133623943022	0.0	1.1620636916840748	-0.1496207094266667	0.0	1.212744477663578	-0.4767845431696978	0.0	1.3314448755560144	-0.7625731182719112	0.0	0.8499859153859218	-0.20956148535147315	0.0	0.7918216250859128	-0.48822954586426276	0.0	0.9701210240498574	-0.4191044080170782	0.0
7	0.23490990990990995	0.9544205971430029	-0.7142729507921405	0.0	1.0513980564126404	-0.7243326695261749	0.0	1.1450178481511724	-1.060190697642277	0.0	1.0888439938308054	-1.0748928222468799	0.0			0.0			0.0			0.0	0.8647545378441646	-0.7227747281646628	0.0	0.9069768910854943	-1.0620259679610975	0.0	1.0741944594084223	-1.0583576709862075	0.0			0.0			0.0			0.0	1.029021525820036	-0.16083697116985	0.0	1.1809743337693988	-0.04480093418565022	0.0	1.1497426457342674	-0.09902619430377543	0.0	1.1552779913014903	-0.15799826224471838	0.0	1.200950618960129	-0.47833765298634257	0.0	1.3162360803899655	-0.7577718324332546	0.0	0.8480692112543815	-0.21989650867605684	0.0	0.7943526505393191	-0.4913181990246205	0.0	0.9691286662855196	-0.43322296610362443	0.0
